<svg width="32" height="32" viewBox="0 0 32 32" fill="none" xmlns="http://www.w3.org/2000/svg"><path d="M16 4C14 4 12 5 11 6.5C10 8 9.5 10 10 12C10.5 14 12 15.5 14 16.5C15 17.5 16.5 18 17.5 18C18.5 18 20 17.5 21 16.5C22 15.5 23.5 14 24 12C24.5 10 24 8 23 6.5C22 5 20 4 18 4C17 4 16.5 4 16 4Z" fill="#000000" stroke="#00FF00" stroke-width="1"/><path d="M8 12C6 13 4 14 3 16C2 18 2.5 20 4 21C5.5 22 7.5 22 9.5 21C11.5 20 12.5 18 12.5 16C12.5 14 10.5 13 8.5 12C8 11.5 8 12 8 12Z" fill="#000000" stroke="#00FF00" stroke-width="1"/><path d="M24 12C26 13 28 14 29 16C30 18 29.5 20 28 21C26.5 22 24.5 22 22.5 21C20.5 20 19.5 18 19.5 16C19.5 14 21.5 13 23.5 12C24 11.5 24 12 24 12Z" fill="#000000" stroke="#00FF00" stroke-width="1"/><circle cx="16" cy="10" r="1.5" fill="#00FF00" opacity="0.8"/></svg>
